<svg xmlns="http://www.w3.org/2000/svg" width="820" height="820">
<text x="20" y="20" class="small">150568</text>
<circle cx="434.48979591836735" cy="527.0068027210884" r="2" fill="red" />
<circle cx="412.7210884353741" cy="548.7755102040816" r="2" fill="red" />
<circle cx="499.7959183673469" cy="559.6598639455782" r="2" fill="red" />
<circle cx="488.9115646258503" cy="494.3537414965986" r="2" fill="red" />
<circle cx="418.1632653061224" cy="603.1972789115646" r="2" fill="red" />
<circle cx="478.02721088435374" cy="510.6802721088435" r="2" fill="red" />
<circle cx="450.81632653061223" cy="537.8911564625851" r="2" fill="red" />
<circle cx="516.1224489795918" cy="494.3537414965986" r="2" fill="red" />
<circle cx="499.7959183673469" cy="521.5646258503401" r="2" fill="red" />
<circle cx="472.5850340136054" cy="570.5442176870748" r="2" fill="red" />
<circle cx="494.3537414965986" cy="527.0068027210884" r="2" fill="red" />
<circle cx="434.48979591836735" cy="478.02721088435374" r="2" fill="red" />
<circle cx="445.3741496598639" cy="565.1020408163265" r="2" fill="red" />
<circle cx="418.1632653061224" cy="488.9115646258503" r="2" fill="red" />
<circle cx="467.1428571428571" cy="505.2380952380952" r="2" fill="red" />
<circle cx="423.6054421768707" cy="521.5646258503401" r="2" fill="red" />
<circle cx="483.469387755102" cy="478.02721088435374" r="2" fill="red" />
<circle cx="505.2380952380952" cy="456.25850340136054" r="2" fill="red" />
<circle cx="499.7959183673469" cy="488.9115646258503" r="2" fill="red" />
<circle cx="472.5850340136054" cy="488.9115646258503" r="2" fill="red" />
<circle cx="488.9115646258503" cy="478.02721088435374" r="2" fill="red" />
<circle cx="488.9115646258503" cy="488.9115646258503" r="2" fill="red" />
<circle cx="494.3537414965986" cy="499.7959183673469" r="2" fill="red" />
<circle cx="488.9115646258503" cy="505.2380952380952" r="2" fill="red" />
<circle cx="369.1836734693877" cy="385.51020408163265" r="2" fill="red" />
<circle cx="390.9523809523809" cy="429.04761904761904" r="2" fill="red" />
<circle cx="418.1632653061224" cy="445.3741496598639" r="2" fill="red" />
<circle cx="336.53061224489795" cy="380.06802721088434" r="2" fill="red" />
<circle cx="363.74149659863946" cy="363.74149659863946" r="2" fill="red" />
<circle cx="401.83673469387753" cy="467.1428571428571" r="2" fill="red" />
<circle cx="429.04761904761904" cy="450.81632653061223" r="2" fill="red" />
<circle cx="363.74149659863946" cy="347.4149659863945" r="2" fill="red" />
<circle cx="358.29931972789115" cy="380.06802721088434" r="2" fill="red" />
<circle cx="369.1836734693877" cy="467.1428571428571" r="2" fill="red" />
<circle cx="380.06802721088434" cy="521.5646258503401" r="2" fill="red" />
<circle cx="390.9523809523809" cy="505.2380952380952" r="2" fill="red" />
<circle cx="396.3945578231292" cy="510.6802721088435" r="2" fill="red" />
<circle cx="369.1836734693877" cy="439.9319727891156" r="2" fill="red" />
<circle cx="363.74149659863946" cy="456.25850340136054" r="2" fill="red" />
<circle cx="358.29931972789115" cy="499.7959183673469" r="2" fill="red" />
<circle cx="401.83673469387753" cy="488.9115646258503" r="2" fill="red" />
<circle cx="347.4149659863945" cy="461.7006802721088" r="2" fill="red" />
<circle cx="374.625850340136" cy="478.02721088435374" r="2" fill="red" />
<circle cx="336.53061224489795" cy="554.2176870748299" r="2" fill="red" />
<circle cx="325.6462585034013" cy="570.5442176870748" r="2" fill="red" />
<circle cx="320.204081632653" cy="684.829931972789" r="2" fill="red" />
<circle cx="363.74149659863946" cy="663.0612244897959" r="2" fill="red" />
<circle cx="325.6462585034013" cy="652.1768707482993" r="2" fill="red" />
<circle cx="341.97278911564626" cy="668.5034013605442" r="2" fill="red" />
<circle cx="429.04761904761904" cy="575.9863945578231" r="2" fill="red" />
<circle cx="401.83673469387753" cy="565.1020408163265" r="2" fill="red" />
<circle cx="429.04761904761904" cy="624.9659863945578" r="2" fill="red" />
<circle cx="341.97278911564626" cy="657.6190476190476" r="2" fill="red" />
<circle cx="358.29931972789115" cy="586.8707482993196" r="2" fill="red" />
<circle cx="418.1632653061224" cy="679.3877551020407" r="2" fill="red" />
<circle cx="401.83673469387753" cy="614.0816326530612" r="2" fill="red" />
<circle cx="380.06802721088434" cy="581.4285714285714" r="2" fill="red" />
<circle cx="521.5646258503401" cy="614.0816326530612" r="2" fill="red" />
<circle cx="581.4285714285714" cy="565.1020408163265" r="2" fill="red" />
<circle cx="554.2176870748299" cy="565.1020408163265" r="2" fill="red" />
<circle cx="548.7755102040816" cy="581.4285714285714" r="2" fill="red" />
<circle cx="559.6598639455782" cy="575.9863945578231" r="2" fill="red" />
<circle cx="690.2721088435374" cy="173.26530612244898" r="2" fill="red" />
<circle cx="521.5646258503401" cy="619.5238095238095" r="2" fill="red" />
<circle cx="516.1224489795918" cy="788.2312925170068" r="2" fill="red" />
<circle cx="456.25850340136054" cy="684.829931972789" r="2" fill="red" />
<circle cx="554.2176870748299" cy="488.9115646258503" r="2" fill="red" />
<circle cx="575.9863945578231" cy="434.48979591836735" r="2" fill="red" />
<circle cx="614.0816326530612" cy="374.625850340136" r="2" fill="red" />
<circle cx="614.0816326530612" cy="412.7210884353741" r="2" fill="red" />
<circle cx="614.0816326530612" cy="450.81632653061223" r="2" fill="red" />
<circle cx="510.6802721088435" cy="483.469387755102" r="2" fill="red" />
<circle cx="548.7755102040816" cy="461.7006802721088" r="2" fill="red" />
<circle cx="537.8911564625851" cy="450.81632653061223" r="2" fill="red" />
<circle cx="565.1020408163265" cy="358.29931972789115" r="2" fill="red" />
<circle cx="527.0068027210884" cy="390.9523809523809" r="2" fill="red" />
<circle cx="505.2380952380952" cy="439.9319727891156" r="2" fill="red" />
<circle cx="494.3537414965986" cy="380.06802721088434" r="2" fill="red" />
<circle cx="467.1428571428571" cy="423.6054421768707" r="2" fill="red" />
<circle cx="456.25850340136054" cy="412.7210884353741" r="2" fill="red" />
<circle cx="510.6802721088435" cy="309.31972789115645" r="2" fill="red" />
<circle cx="510.6802721088435" cy="216.80272108843536" r="2" fill="red" />
<circle cx="488.9115646258503" cy="211.36054421768705" r="2" fill="red" />
<circle cx="510.6802721088435" cy="320.204081632653" r="2" fill="red" />
<circle cx="766.4625850340136" cy="434.48979591836735" r="2" fill="red" />
<circle cx="771.9047619047618" cy="429.04761904761904" r="2" fill="red" />
<circle cx="766.4625850340136" cy="418.1632653061224" r="2" fill="red" />
<circle cx="771.9047619047618" cy="407.27891156462584" r="2" fill="red" />
<circle cx="619.5238095238095" cy="744.6938775510204" r="2" fill="red" />
<circle cx="537.8911564625851" cy="565.1020408163265" r="2" fill="red" />
<circle cx="543.3333333333333" cy="592.312925170068" r="2" fill="red" />
<circle cx="635.8503401360543" cy="750.1360544217687" r="2" fill="red" />
<circle cx="211.36054421768705" cy="548.7755102040816" r="2" fill="red" />
<circle cx="276.66666666666663" cy="668.5034013605442" r="2" fill="red" />
<circle cx="238.57142857142856" cy="483.469387755102" r="2" fill="red" />
<circle cx="706.5986394557823" cy="369.1836734693877" r="2" fill="red" />
<circle cx="222.24489795918367" cy="347.4149659863945" r="2" fill="red" />
<circle cx="10.0" cy="156.93877551020407" r="2" fill="red" />
<circle cx="646.734693877551" cy="810.0" r="2" fill="red" />
<circle cx="499.7959183673469" cy="603.1972789115646" r="2" fill="red" />
<circle cx="429.04761904761904" cy="10.0" r="2" fill="red" />
<circle cx="483.469387755102" cy="26.3265306122449" r="2" fill="red" />
<circle cx="314.76190476190476" cy="559.6598639455782" r="2" fill="red" />
<circle cx="744.6938775510204" cy="635.8503401360543" r="2" fill="red" />
<circle cx="461.7006802721088" cy="521.5646258503401" r="2" fill="red" />
<circle cx="472.5850340136054" cy="510.6802721088435" r="2" fill="red" />
<circle cx="26.3265306122449" cy="733.8095238095237" r="2" fill="red" />
<circle cx="478.02721088435374" cy="499.7959183673469" r="2" fill="red" />
<circle cx="706.5986394557823" cy="396.3945578231292" r="2" fill="red" />
<circle cx="701.156462585034" cy="461.7006802721088" r="2" fill="red" />
<circle cx="222.24489795918367" cy="750.1360544217687" r="2" fill="red" />
<circle cx="265.78231292517006" cy="761.0204081632653" r="2" fill="red" />
<circle cx="527.0068027210884" cy="684.829931972789" r="2" fill="red" />
<circle cx="472.5850340136054" cy="527.0068027210884" r="2" fill="red" />
<circle cx="450.81632653061223" cy="575.9863945578231" r="2" fill="red" />
<circle cx="543.3333333333333" cy="559.6598639455782" r="2" fill="red" />
<circle cx="488.9115646258503" cy="341.97278911564626" r="2" fill="red" />
<circle cx="331.08843537414964" cy="663.0612244897959" r="2" fill="red" />
<circle cx="733.8095238095237" cy="254.89795918367346" r="2" fill="red" />
<circle cx="461.7006802721088" cy="554.2176870748299" r="2" fill="red" />
<circle cx="401.83673469387753" cy="592.312925170068" r="2" fill="red" />
<circle cx="347.4149659863945" cy="380.06802721088434" r="2" fill="red" />
<circle cx="238.57142857142856" cy="423.6054421768707" r="2" fill="red" />
<circle cx="418.1632653061224" cy="635.8503401360543" r="2" fill="red" />
<circle cx="614.0816326530612" cy="684.829931972789" r="2" fill="red" />
<circle cx="510.6802721088435" cy="260.34013605442175" r="2" fill="red" />
<circle cx="124.28571428571428" cy="527.0068027210884" r="2" fill="red" />
<line x1="336.53061224489795" y1="554.2176870748299" x2="314.76190476190476" y2="559.6598639455782" stroke="blue" stroke-width="1" />
<line x1="314.76190476190476" y1="559.6598639455782" x2="325.6462585034013" y2="570.5442176870748" stroke="blue" stroke-width="1" />
<line x1="325.6462585034013" y1="570.5442176870748" x2="380.06802721088434" y2="581.4285714285714" stroke="blue" stroke-width="1" />
<line x1="380.06802721088434" y1="581.4285714285714" x2="401.83673469387753" y2="592.312925170068" stroke="blue" stroke-width="1" />
<line x1="401.83673469387753" y1="592.312925170068" x2="401.83673469387753" y2="614.0816326530612" stroke="blue" stroke-width="1" />
<line x1="401.83673469387753" y1="614.0816326530612" x2="418.1632653061224" y2="603.1972789115646" stroke="blue" stroke-width="1" />
<line x1="418.1632653061224" y1="603.1972789115646" x2="429.04761904761904" y2="624.9659863945578" stroke="blue" stroke-width="1" />
<line x1="429.04761904761904" y1="624.9659863945578" x2="418.1632653061224" y2="635.8503401360543" stroke="blue" stroke-width="1" />
<line x1="418.1632653061224" y1="635.8503401360543" x2="418.1632653061224" y2="679.3877551020407" stroke="blue" stroke-width="1" />
<line x1="418.1632653061224" y1="679.3877551020407" x2="456.25850340136054" y2="684.829931972789" stroke="blue" stroke-width="1" />
<line x1="456.25850340136054" y1="684.829931972789" x2="527.0068027210884" y2="684.829931972789" stroke="blue" stroke-width="1" />
<line x1="527.0068027210884" y1="684.829931972789" x2="516.1224489795918" y2="788.2312925170068" stroke="blue" stroke-width="1" />
<line x1="516.1224489795918" y1="788.2312925170068" x2="646.734693877551" y2="810.0" stroke="blue" stroke-width="1" />
<line x1="646.734693877551" y1="810.0" x2="635.8503401360543" y2="750.1360544217687" stroke="blue" stroke-width="1" />
<line x1="635.8503401360543" y1="750.1360544217687" x2="619.5238095238095" y2="744.6938775510204" stroke="blue" stroke-width="1" />
<line x1="619.5238095238095" y1="744.6938775510204" x2="614.0816326530612" y2="684.829931972789" stroke="blue" stroke-width="1" />
<line x1="614.0816326530612" y1="684.829931972789" x2="744.6938775510204" y2="635.8503401360543" stroke="blue" stroke-width="1" />
<line x1="744.6938775510204" y1="635.8503401360543" x2="701.156462585034" y2="461.7006802721088" stroke="blue" stroke-width="1" />
<line x1="701.156462585034" y1="461.7006802721088" x2="766.4625850340136" y2="434.48979591836735" stroke="blue" stroke-width="1" />
<line x1="766.4625850340136" y1="434.48979591836735" x2="771.9047619047618" y2="429.04761904761904" stroke="blue" stroke-width="1" />
<line x1="771.9047619047618" y1="429.04761904761904" x2="766.4625850340136" y2="418.1632653061224" stroke="blue" stroke-width="1" />
<line x1="766.4625850340136" y1="418.1632653061224" x2="771.9047619047618" y2="407.27891156462584" stroke="blue" stroke-width="1" />
<line x1="771.9047619047618" y1="407.27891156462584" x2="706.5986394557823" y2="396.3945578231292" stroke="blue" stroke-width="1" />
<line x1="706.5986394557823" y1="396.3945578231292" x2="706.5986394557823" y2="369.1836734693877" stroke="blue" stroke-width="1" />
<line x1="706.5986394557823" y1="369.1836734693877" x2="733.8095238095237" y2="254.89795918367346" stroke="blue" stroke-width="1" />
<line x1="733.8095238095237" y1="254.89795918367346" x2="690.2721088435374" y2="173.26530612244898" stroke="blue" stroke-width="1" />
<line x1="690.2721088435374" y1="173.26530612244898" x2="429.04761904761904" y2="10.0" stroke="blue" stroke-width="1" />
<line x1="429.04761904761904" y1="10.0" x2="483.469387755102" y2="26.3265306122449" stroke="blue" stroke-width="1" />
<line x1="483.469387755102" y1="26.3265306122449" x2="488.9115646258503" y2="211.36054421768705" stroke="blue" stroke-width="1" />
<line x1="488.9115646258503" y1="211.36054421768705" x2="510.6802721088435" y2="216.80272108843536" stroke="blue" stroke-width="1" />
<line x1="510.6802721088435" y1="216.80272108843536" x2="510.6802721088435" y2="260.34013605442175" stroke="blue" stroke-width="1" />
<line x1="510.6802721088435" y1="260.34013605442175" x2="510.6802721088435" y2="309.31972789115645" stroke="blue" stroke-width="1" />
<line x1="510.6802721088435" y1="309.31972789115645" x2="510.6802721088435" y2="320.204081632653" stroke="blue" stroke-width="1" />
<line x1="510.6802721088435" y1="320.204081632653" x2="488.9115646258503" y2="341.97278911564626" stroke="blue" stroke-width="1" />
<line x1="488.9115646258503" y1="341.97278911564626" x2="494.3537414965986" y2="380.06802721088434" stroke="blue" stroke-width="1" />
<line x1="494.3537414965986" y1="380.06802721088434" x2="527.0068027210884" y2="390.9523809523809" stroke="blue" stroke-width="1" />
<line x1="527.0068027210884" y1="390.9523809523809" x2="565.1020408163265" y2="358.29931972789115" stroke="blue" stroke-width="1" />
<line x1="565.1020408163265" y1="358.29931972789115" x2="614.0816326530612" y2="374.625850340136" stroke="blue" stroke-width="1" />
<line x1="614.0816326530612" y1="374.625850340136" x2="614.0816326530612" y2="412.7210884353741" stroke="blue" stroke-width="1" />
<line x1="614.0816326530612" y1="412.7210884353741" x2="614.0816326530612" y2="450.81632653061223" stroke="blue" stroke-width="1" />
<line x1="614.0816326530612" y1="450.81632653061223" x2="575.9863945578231" y2="434.48979591836735" stroke="blue" stroke-width="1" />
<line x1="575.9863945578231" y1="434.48979591836735" x2="537.8911564625851" y2="450.81632653061223" stroke="blue" stroke-width="1" />
<line x1="537.8911564625851" y1="450.81632653061223" x2="548.7755102040816" y2="461.7006802721088" stroke="blue" stroke-width="1" />
<line x1="548.7755102040816" y1="461.7006802721088" x2="554.2176870748299" y2="488.9115646258503" stroke="blue" stroke-width="1" />
<line x1="554.2176870748299" y1="488.9115646258503" x2="516.1224489795918" y2="494.3537414965986" stroke="blue" stroke-width="1" />
<line x1="516.1224489795918" y1="494.3537414965986" x2="499.7959183673469" y2="488.9115646258503" stroke="blue" stroke-width="1" />
<line x1="499.7959183673469" y1="488.9115646258503" x2="510.6802721088435" y2="483.469387755102" stroke="blue" stroke-width="1" />
<line x1="510.6802721088435" y1="483.469387755102" x2="505.2380952380952" y2="456.25850340136054" stroke="blue" stroke-width="1" />
<line x1="505.2380952380952" y1="456.25850340136054" x2="505.2380952380952" y2="439.9319727891156" stroke="blue" stroke-width="1" />
<line x1="505.2380952380952" y1="439.9319727891156" x2="467.1428571428571" y2="423.6054421768707" stroke="blue" stroke-width="1" />
<line x1="467.1428571428571" y1="423.6054421768707" x2="456.25850340136054" y2="412.7210884353741" stroke="blue" stroke-width="1" />
<line x1="456.25850340136054" y1="412.7210884353741" x2="429.04761904761904" y2="450.81632653061223" stroke="blue" stroke-width="1" />
<line x1="429.04761904761904" y1="450.81632653061223" x2="418.1632653061224" y2="445.3741496598639" stroke="blue" stroke-width="1" />
<line x1="418.1632653061224" y1="445.3741496598639" x2="390.9523809523809" y2="429.04761904761904" stroke="blue" stroke-width="1" />
<line x1="390.9523809523809" y1="429.04761904761904" x2="369.1836734693877" y2="439.9319727891156" stroke="blue" stroke-width="1" />
<line x1="369.1836734693877" y1="439.9319727891156" x2="369.1836734693877" y2="467.1428571428571" stroke="blue" stroke-width="1" />
<line x1="369.1836734693877" y1="467.1428571428571" x2="374.625850340136" y2="478.02721088435374" stroke="blue" stroke-width="1" />
<line x1="374.625850340136" y1="478.02721088435374" x2="401.83673469387753" y2="467.1428571428571" stroke="blue" stroke-width="1" />
<line x1="401.83673469387753" y1="467.1428571428571" x2="401.83673469387753" y2="488.9115646258503" stroke="blue" stroke-width="1" />
<line x1="401.83673469387753" y1="488.9115646258503" x2="418.1632653061224" y2="488.9115646258503" stroke="blue" stroke-width="1" />
<line x1="418.1632653061224" y1="488.9115646258503" x2="434.48979591836735" y2="478.02721088435374" stroke="blue" stroke-width="1" />
<line x1="434.48979591836735" y1="478.02721088435374" x2="434.48979591836735" y2="527.0068027210884" stroke="blue" stroke-width="1" />
<line x1="434.48979591836735" y1="527.0068027210884" x2="423.6054421768707" y2="521.5646258503401" stroke="blue" stroke-width="1" />
<line x1="423.6054421768707" y1="521.5646258503401" x2="412.7210884353741" y2="548.7755102040816" stroke="blue" stroke-width="1" />
<line x1="412.7210884353741" y1="548.7755102040816" x2="461.7006802721088" y2="554.2176870748299" stroke="blue" stroke-width="1" />
<line x1="461.7006802721088" y1="554.2176870748299" x2="450.81632653061223" y2="537.8911564625851" stroke="blue" stroke-width="1" />
<line x1="450.81632653061223" y1="537.8911564625851" x2="472.5850340136054" y2="527.0068027210884" stroke="blue" stroke-width="1" />
<line x1="472.5850340136054" y1="527.0068027210884" x2="461.7006802721088" y2="521.5646258503401" stroke="blue" stroke-width="1" />
<line x1="461.7006802721088" y1="521.5646258503401" x2="467.1428571428571" y2="505.2380952380952" stroke="blue" stroke-width="1" />
<line x1="467.1428571428571" y1="505.2380952380952" x2="472.5850340136054" y2="510.6802721088435" stroke="blue" stroke-width="1" />
<line x1="472.5850340136054" y1="510.6802721088435" x2="478.02721088435374" y2="510.6802721088435" stroke="blue" stroke-width="1" />
<line x1="478.02721088435374" y1="510.6802721088435" x2="478.02721088435374" y2="499.7959183673469" stroke="blue" stroke-width="1" />
<line x1="478.02721088435374" y1="499.7959183673469" x2="472.5850340136054" y2="488.9115646258503" stroke="blue" stroke-width="1" />
<line x1="472.5850340136054" y1="488.9115646258503" x2="483.469387755102" y2="478.02721088435374" stroke="blue" stroke-width="1" />
<line x1="483.469387755102" y1="478.02721088435374" x2="488.9115646258503" y2="478.02721088435374" stroke="blue" stroke-width="1" />
<line x1="488.9115646258503" y1="478.02721088435374" x2="488.9115646258503" y2="488.9115646258503" stroke="blue" stroke-width="1" />
<line x1="488.9115646258503" y1="488.9115646258503" x2="488.9115646258503" y2="494.3537414965986" stroke="blue" stroke-width="1" />
<line x1="488.9115646258503" y1="494.3537414965986" x2="494.3537414965986" y2="499.7959183673469" stroke="blue" stroke-width="1" />
<line x1="494.3537414965986" y1="499.7959183673469" x2="488.9115646258503" y2="505.2380952380952" stroke="blue" stroke-width="1" />
<line x1="488.9115646258503" y1="505.2380952380952" x2="499.7959183673469" y2="521.5646258503401" stroke="blue" stroke-width="1" />
<line x1="499.7959183673469" y1="521.5646258503401" x2="494.3537414965986" y2="527.0068027210884" stroke="blue" stroke-width="1" />
<line x1="494.3537414965986" y1="527.0068027210884" x2="499.7959183673469" y2="559.6598639455782" stroke="blue" stroke-width="1" />
<line x1="499.7959183673469" y1="559.6598639455782" x2="537.8911564625851" y2="565.1020408163265" stroke="blue" stroke-width="1" />
<line x1="537.8911564625851" y1="565.1020408163265" x2="543.3333333333333" y2="559.6598639455782" stroke="blue" stroke-width="1" />
<line x1="543.3333333333333" y1="559.6598639455782" x2="554.2176870748299" y2="565.1020408163265" stroke="blue" stroke-width="1" />
<line x1="554.2176870748299" y1="565.1020408163265" x2="581.4285714285714" y2="565.1020408163265" stroke="blue" stroke-width="1" />
<line x1="581.4285714285714" y1="565.1020408163265" x2="559.6598639455782" y2="575.9863945578231" stroke="blue" stroke-width="1" />
<line x1="559.6598639455782" y1="575.9863945578231" x2="548.7755102040816" y2="581.4285714285714" stroke="blue" stroke-width="1" />
<line x1="548.7755102040816" y1="581.4285714285714" x2="543.3333333333333" y2="592.312925170068" stroke="blue" stroke-width="1" />
<line x1="543.3333333333333" y1="592.312925170068" x2="521.5646258503401" y2="619.5238095238095" stroke="blue" stroke-width="1" />
<line x1="521.5646258503401" y1="619.5238095238095" x2="521.5646258503401" y2="614.0816326530612" stroke="blue" stroke-width="1" />
<line x1="521.5646258503401" y1="614.0816326530612" x2="499.7959183673469" y2="603.1972789115646" stroke="blue" stroke-width="1" />
<line x1="499.7959183673469" y1="603.1972789115646" x2="472.5850340136054" y2="570.5442176870748" stroke="blue" stroke-width="1" />
<line x1="472.5850340136054" y1="570.5442176870748" x2="450.81632653061223" y2="575.9863945578231" stroke="blue" stroke-width="1" />
<line x1="450.81632653061223" y1="575.9863945578231" x2="445.3741496598639" y2="565.1020408163265" stroke="blue" stroke-width="1" />
<line x1="445.3741496598639" y1="565.1020408163265" x2="429.04761904761904" y2="575.9863945578231" stroke="blue" stroke-width="1" />
<line x1="429.04761904761904" y1="575.9863945578231" x2="401.83673469387753" y2="565.1020408163265" stroke="blue" stroke-width="1" />
<line x1="401.83673469387753" y1="565.1020408163265" x2="380.06802721088434" y2="521.5646258503401" stroke="blue" stroke-width="1" />
<line x1="380.06802721088434" y1="521.5646258503401" x2="396.3945578231292" y2="510.6802721088435" stroke="blue" stroke-width="1" />
<line x1="396.3945578231292" y1="510.6802721088435" x2="390.9523809523809" y2="505.2380952380952" stroke="blue" stroke-width="1" />
<line x1="390.9523809523809" y1="505.2380952380952" x2="358.29931972789115" y2="499.7959183673469" stroke="blue" stroke-width="1" />
<line x1="358.29931972789115" y1="499.7959183673469" x2="347.4149659863945" y2="461.7006802721088" stroke="blue" stroke-width="1" />
<line x1="347.4149659863945" y1="461.7006802721088" x2="363.74149659863946" y2="456.25850340136054" stroke="blue" stroke-width="1" />
<line x1="363.74149659863946" y1="456.25850340136054" x2="369.1836734693877" y2="385.51020408163265" stroke="blue" stroke-width="1" />
<line x1="369.1836734693877" y1="385.51020408163265" x2="336.53061224489795" y2="380.06802721088434" stroke="blue" stroke-width="1" />
<line x1="336.53061224489795" y1="380.06802721088434" x2="347.4149659863945" y2="380.06802721088434" stroke="blue" stroke-width="1" />
<line x1="347.4149659863945" y1="380.06802721088434" x2="358.29931972789115" y2="380.06802721088434" stroke="blue" stroke-width="1" />
<line x1="358.29931972789115" y1="380.06802721088434" x2="363.74149659863946" y2="363.74149659863946" stroke="blue" stroke-width="1" />
<line x1="363.74149659863946" y1="363.74149659863946" x2="363.74149659863946" y2="347.4149659863945" stroke="blue" stroke-width="1" />
<line x1="363.74149659863946" y1="347.4149659863945" x2="222.24489795918367" y2="347.4149659863945" stroke="blue" stroke-width="1" />
<line x1="222.24489795918367" y1="347.4149659863945" x2="238.57142857142856" y2="423.6054421768707" stroke="blue" stroke-width="1" />
<line x1="238.57142857142856" y1="423.6054421768707" x2="238.57142857142856" y2="483.469387755102" stroke="blue" stroke-width="1" />
<line x1="238.57142857142856" y1="483.469387755102" x2="211.36054421768705" y2="548.7755102040816" stroke="blue" stroke-width="1" />
<line x1="211.36054421768705" y1="548.7755102040816" x2="124.28571428571428" y2="527.0068027210884" stroke="blue" stroke-width="1" />
<line x1="124.28571428571428" y1="527.0068027210884" x2="10.0" y2="156.93877551020407" stroke="blue" stroke-width="1" />
<line x1="10.0" y1="156.93877551020407" x2="26.3265306122449" y2="733.8095238095237" stroke="blue" stroke-width="1" />
<line x1="26.3265306122449" y1="733.8095238095237" x2="222.24489795918367" y2="750.1360544217687" stroke="blue" stroke-width="1" />
<line x1="222.24489795918367" y1="750.1360544217687" x2="265.78231292517006" y2="761.0204081632653" stroke="blue" stroke-width="1" />
<line x1="265.78231292517006" y1="761.0204081632653" x2="276.66666666666663" y2="668.5034013605442" stroke="blue" stroke-width="1" />
<line x1="276.66666666666663" y1="668.5034013605442" x2="320.204081632653" y2="684.829931972789" stroke="blue" stroke-width="1" />
<line x1="320.204081632653" y1="684.829931972789" x2="325.6462585034013" y2="652.1768707482993" stroke="blue" stroke-width="1" />
<line x1="325.6462585034013" y1="652.1768707482993" x2="331.08843537414964" y2="663.0612244897959" stroke="blue" stroke-width="1" />
<line x1="331.08843537414964" y1="663.0612244897959" x2="341.97278911564626" y2="657.6190476190476" stroke="blue" stroke-width="1" />
<line x1="341.97278911564626" y1="657.6190476190476" x2="341.97278911564626" y2="668.5034013605442" stroke="blue" stroke-width="1" />
<line x1="341.97278911564626" y1="668.5034013605442" x2="363.74149659863946" y2="663.0612244897959" stroke="blue" stroke-width="1" />
<line x1="363.74149659863946" y1="663.0612244897959" x2="358.29931972789115" y2="586.8707482993196" stroke="blue" stroke-width="1" />
<line x1="358.29931972789115" y1="586.8707482993196" x2="336.53061224489795" y2="554.2176870748299" stroke="blue" stroke-width="1" />
</svg>
